G04*
G04 #@! TF.GenerationSoftware,Altium Limited,Altium Designer,20.2.2 (114)*
G04*
G04 Layer_Color=32896*
%FSLAX44Y44*%
%MOMM*%
G71*
G04*
G04 #@! TF.SameCoordinates,4A35201A-C963-4E52-B05F-806438ECE370*
G04*
G04*
G04 #@! TF.FilePolarity,Positive*
G04*
G01*
G75*
%ADD10C,0.2000*%
G36*
X198670Y156830D02*
X198669Y170830D01*
X201670Y167831D01*
X201670Y159830D01*
X198670Y156830D01*
D02*
G37*
G36*
X380280Y150480D02*
X380280Y164480D01*
X383279Y161481D01*
X383280Y153480D01*
X380280Y150480D01*
D02*
G37*
G36*
X592370Y142860D02*
X592369Y156860D01*
X595369Y153861D01*
X595370Y145860D01*
X592370Y142860D01*
D02*
G37*
G36*
X827100Y140320D02*
X827100Y154320D01*
X830099Y151320D01*
X830100Y143320D01*
X827100Y140320D01*
D02*
G37*
D10*
X163670Y155830D02*
X179670D01*
X195670Y153830D02*
X201670Y159830D01*
X195670Y173830D02*
X201670Y167830D01*
Y159830D02*
Y167830D01*
X143670Y153830D02*
Y173830D01*
Y153830D02*
X162780D01*
X143670Y173830D02*
X162780D01*
X180560D02*
X195670D01*
X180560Y153830D02*
X195670D01*
X163670Y171830D02*
X179670D01*
X168670Y157830D02*
X174670Y163830D01*
X168670Y157830D02*
Y169830D01*
X174670Y163830D01*
Y159830D02*
Y167830D01*
Y163830D02*
X178670D01*
X164670D02*
X168670D01*
X345280Y149480D02*
X361280D01*
X377280Y147480D02*
X383280Y153480D01*
X377280Y167480D02*
X383280Y161480D01*
Y153480D02*
Y161480D01*
X325280Y147480D02*
Y167480D01*
Y147480D02*
X344390D01*
X325280Y167480D02*
X344390D01*
X362170D02*
X377280D01*
X362170Y147480D02*
X377280D01*
X345280Y165480D02*
X361280D01*
X350280Y151480D02*
X356280Y157480D01*
X350280Y151480D02*
Y163480D01*
X356280Y157480D01*
Y153480D02*
Y161480D01*
Y157480D02*
X360280D01*
X346280D02*
X350280D01*
X792100Y139320D02*
X808100D01*
X824100Y137320D02*
X830100Y143320D01*
X824100Y157320D02*
X830100Y151320D01*
Y143320D02*
Y151320D01*
X772100Y137320D02*
Y157320D01*
Y137320D02*
X791210D01*
X772100Y157320D02*
X791210D01*
X808990D02*
X824100D01*
X808990Y137320D02*
X824100D01*
X792100Y155320D02*
X808100D01*
X797100Y141320D02*
X803100Y147320D01*
X797100Y141320D02*
Y153320D01*
X803100Y147320D01*
Y143320D02*
Y151320D01*
Y147320D02*
X807100D01*
X793100D02*
X797100D01*
X557370Y141860D02*
X573370D01*
X589370Y139860D02*
X595370Y145860D01*
X589370Y159860D02*
X595370Y153860D01*
Y145860D02*
Y153860D01*
X537370Y139860D02*
Y159860D01*
Y139860D02*
X556480D01*
X537370Y159860D02*
X556480D01*
X574260D02*
X589370D01*
X574260Y139860D02*
X589370D01*
X557370Y157860D02*
X573370D01*
X562370Y143860D02*
X568370Y149860D01*
X562370Y143860D02*
Y155860D01*
X568370Y149860D01*
Y145860D02*
Y153860D01*
Y149860D02*
X572370D01*
X558370D02*
X562370D01*
M02*
