G04*
G04 #@! TF.GenerationSoftware,Altium Limited,Altium Designer,20.2.2 (114)*
G04*
G04 Layer_Color=255*
%FSLAX44Y44*%
%MOMM*%
G71*
G04*
G04 #@! TF.SameCoordinates,4A35201A-C963-4E52-B05F-806438ECE370*
G04*
G04*
G04 #@! TF.FilePolarity,Positive*
G04*
G01*
G75*
%ADD21R,3.6000X2.4000*%
%ADD22O,3.6000X2.4000*%
%ADD23R,2.4000X3.6000*%
%ADD24O,2.4000X3.6000*%
%ADD25C,2.5000*%
%ADD26R,2.5000X2.5000*%
G04:AMPARAMS|DCode=28|XSize=1.6mm|YSize=1.6mm|CornerRadius=0.4mm|HoleSize=0mm|Usage=FLASHONLY|Rotation=180.000|XOffset=0mm|YOffset=0mm|HoleType=Round|Shape=RoundedRectangle|*
%AMROUNDEDRECTD28*
21,1,1.6000,0.8000,0,0,180.0*
21,1,0.8000,1.6000,0,0,180.0*
1,1,0.8000,-0.4000,0.4000*
1,1,0.8000,0.4000,0.4000*
1,1,0.8000,0.4000,-0.4000*
1,1,0.8000,-0.4000,-0.4000*
%
%ADD28ROUNDEDRECTD28*%
%ADD29R,1.6000X1.6000*%
D21*
X786301Y555970D02*
D03*
X565264Y554180D02*
D03*
X675783Y554700D02*
D03*
X123190Y553140D02*
D03*
X233708D02*
D03*
X344227Y554410D02*
D03*
X454746D02*
D03*
X894080Y556260D02*
D03*
X29210Y302950D02*
D03*
D22*
X786301Y516370D02*
D03*
Y476770D02*
D03*
Y437170D02*
D03*
X565264Y514580D02*
D03*
Y474980D02*
D03*
Y435380D02*
D03*
X675783Y515100D02*
D03*
Y475500D02*
D03*
Y435900D02*
D03*
X123190Y513540D02*
D03*
Y473940D02*
D03*
Y434340D02*
D03*
X233708Y513540D02*
D03*
Y473940D02*
D03*
Y434340D02*
D03*
X344227Y514810D02*
D03*
Y475210D02*
D03*
Y435610D02*
D03*
X454746Y514810D02*
D03*
Y475210D02*
D03*
Y435610D02*
D03*
X894080Y516660D02*
D03*
Y477060D02*
D03*
Y437460D02*
D03*
X29210Y263350D02*
D03*
Y223750D02*
D03*
Y184150D02*
D03*
Y144550D02*
D03*
D23*
X257810Y82550D02*
D03*
X905970Y86360D02*
D03*
X692610D02*
D03*
X479770Y83820D02*
D03*
D24*
X218210Y82550D02*
D03*
X178610D02*
D03*
X139010D02*
D03*
X866370Y86360D02*
D03*
X826770D02*
D03*
X787170D02*
D03*
X653010D02*
D03*
X613410D02*
D03*
X573810D02*
D03*
X440170Y83820D02*
D03*
X400570D02*
D03*
X360970D02*
D03*
D25*
X148670Y190500D02*
D03*
Y254500D02*
D03*
X280670Y190500D02*
D03*
Y254500D02*
D03*
X236670D02*
D03*
X192670D02*
D03*
X236670Y317500D02*
D03*
X280670D02*
D03*
X192670D02*
D03*
X148670D02*
D03*
X236670Y358500D02*
D03*
X192670D02*
D03*
X148670D02*
D03*
X580047Y191770D02*
D03*
Y255770D02*
D03*
X712047Y191770D02*
D03*
Y255770D02*
D03*
X668047D02*
D03*
X624047D02*
D03*
X668047Y318770D02*
D03*
X712047D02*
D03*
X624047D02*
D03*
X580047D02*
D03*
X668047Y359770D02*
D03*
X624047D02*
D03*
X580047D02*
D03*
X364994Y190500D02*
D03*
Y254500D02*
D03*
X496993Y190500D02*
D03*
Y254500D02*
D03*
X452993D02*
D03*
X408993D02*
D03*
X452993Y317500D02*
D03*
X496993D02*
D03*
X408993D02*
D03*
X364994D02*
D03*
X452993Y358500D02*
D03*
X408993D02*
D03*
X364994D02*
D03*
X793830Y193040D02*
D03*
Y257040D02*
D03*
X925830Y193040D02*
D03*
Y257040D02*
D03*
X881830D02*
D03*
X837830D02*
D03*
X881830Y320040D02*
D03*
X925830D02*
D03*
X837830D02*
D03*
X793830D02*
D03*
X881830Y361040D02*
D03*
X837830D02*
D03*
X793830D02*
D03*
D26*
X280670Y358500D02*
D03*
X712047Y359770D02*
D03*
X496993Y358500D02*
D03*
X925830Y361040D02*
D03*
D28*
X189670Y163830D02*
D03*
X371280Y157480D02*
D03*
X818100Y147320D02*
D03*
X583370Y149860D02*
D03*
D29*
X153670Y163830D02*
D03*
X335280Y157480D02*
D03*
X782100Y147320D02*
D03*
X547370Y149860D02*
D03*
M02*
