G04*
G04 #@! TF.GenerationSoftware,Altium Limited,Altium Designer,20.2.2 (114)*
G04*
G04 Layer_Color=65535*
%FSLAX44Y44*%
%MOMM*%
G71*
G04*
G04 #@! TF.SameCoordinates,4A35201A-C963-4E52-B05F-806438ECE370*
G04*
G04*
G04 #@! TF.FilePolarity,Positive*
G04*
G01*
G75*
%ADD10C,0.2000*%
%ADD11C,0.2540*%
D10*
X735301Y417370D02*
X838371D01*
X735301D02*
Y575970D01*
X838371Y417370D02*
Y575970D01*
X735301D02*
X838371D01*
X826941Y417370D02*
Y575970D01*
X514264Y415580D02*
X617334D01*
X514264D02*
Y574180D01*
X617334Y415580D02*
Y574180D01*
X514264D02*
X617334D01*
X605904Y415580D02*
Y574180D01*
X624783Y416100D02*
X727853D01*
X624783D02*
Y574700D01*
X727853Y416100D02*
Y574700D01*
X624783D02*
X727853D01*
X716423Y416100D02*
Y574700D01*
X72190Y414540D02*
X175260D01*
X72190D02*
Y573140D01*
X175260Y414540D02*
Y573140D01*
X72190D02*
X175260D01*
X163830Y414540D02*
Y573140D01*
X182708Y414540D02*
X285779D01*
X182708D02*
Y573140D01*
X285779Y414540D02*
Y573140D01*
X182708D02*
X285779D01*
X274349Y414540D02*
Y573140D01*
X293227Y415810D02*
X396297D01*
X293227D02*
Y574410D01*
X396297Y415810D02*
Y574410D01*
X293227D02*
X396297D01*
X384867Y415810D02*
Y574410D01*
X403746Y415810D02*
X506816D01*
X403746D02*
Y574410D01*
X506816Y415810D02*
Y574410D01*
X403746D02*
X506816D01*
X495386Y415810D02*
Y574410D01*
X843080Y417660D02*
X946150D01*
X843080D02*
Y576260D01*
X946150Y417660D02*
Y576260D01*
X843080D02*
X946150D01*
X934720Y417660D02*
Y576260D01*
X119210Y30480D02*
Y133550D01*
X277810D01*
X119210Y30480D02*
X277810D01*
Y133550D01*
X119210Y41910D02*
X277810D01*
X767370Y34290D02*
Y137360D01*
X925970D01*
X767370Y34290D02*
X925970D01*
Y137360D01*
X767370Y45720D02*
X925970D01*
X554010Y34290D02*
Y137360D01*
X712610D01*
X554010Y34290D02*
X712610D01*
Y137360D01*
X554010Y45720D02*
X712610D01*
X341170Y31750D02*
Y134820D01*
X499770D01*
X341170Y31750D02*
X499770D01*
Y134820D01*
X341170Y43180D02*
X499770D01*
X69850Y124750D02*
Y322950D01*
X-21790Y124750D02*
X81280D01*
X-21790D02*
Y322950D01*
X81280Y124750D02*
Y322950D01*
X-21790D02*
X81280D01*
D11*
X204510Y198300D02*
X229910D01*
Y177980D02*
Y198300D01*
X204510Y177980D02*
X229910D01*
X204510D02*
Y198300D01*
X229910Y188140D02*
X260390D01*
X174030D02*
X204510D01*
X114670Y144500D02*
Y404500D01*
X314670Y144500D02*
Y404500D01*
X114670Y144500D02*
X314670D01*
X114670Y404500D02*
X314670D01*
X635887Y199570D02*
X661287D01*
Y179250D02*
Y199570D01*
X635887Y179250D02*
X661287D01*
X635887D02*
Y199570D01*
X661287Y189410D02*
X691767D01*
X605407D02*
X635887D01*
X546047Y145770D02*
Y405770D01*
X746047Y145770D02*
Y405770D01*
X546047Y145770D02*
X746047D01*
X546047Y405770D02*
X746047D01*
X420833Y198300D02*
X446233D01*
Y177980D02*
Y198300D01*
X420833Y177980D02*
X446233D01*
X420833D02*
Y198300D01*
X446233Y188140D02*
X476713D01*
X390353D02*
X420833D01*
X330993Y144500D02*
Y404500D01*
X530993Y144500D02*
Y404500D01*
X330993Y144500D02*
X530993D01*
X330993Y404500D02*
X530993D01*
X849670Y200840D02*
X875070D01*
Y180520D02*
Y200840D01*
X849670Y180520D02*
X875070D01*
X849670D02*
Y200840D01*
X875070Y190680D02*
X905550D01*
X819190D02*
X849670D01*
X759830Y147040D02*
Y407040D01*
X959830Y147040D02*
Y407040D01*
X759830Y147040D02*
X959830D01*
X759830Y407040D02*
X959830D01*
M02*
