G04*
G04 #@! TF.GenerationSoftware,Altium Limited,Altium Designer,20.2.2 (114)*
G04*
G04 Layer_Color=16711935*
%FSLAX44Y44*%
%MOMM*%
G71*
G04*
G04 #@! TF.SameCoordinates,263EBA9D-054C-40F6-8731-2C9348E58862*
G04*
G04*
G04 #@! TF.FilePolarity,Positive*
G04*
G01*
G75*
%ADD11C,0.2540*%
%ADD35C,0.1524*%
D11*
X-50800Y600000D02*
X-3810D01*
X-50800Y0D02*
X-3810D01*
X-48260Y334279D02*
Y600000D01*
Y0D02*
Y257593D01*
X-53340Y584760D02*
X-48260Y600000D01*
X-43180Y584760D01*
X-48260Y0D02*
X-43180Y15240D01*
X-53340D02*
X-48260Y0D01*
X1000000Y-54610D02*
Y-3810D01*
X0Y-54610D02*
Y-3810D01*
X555862Y-52070D02*
X1000000D01*
X0D02*
X436010D01*
X984760Y-46990D02*
X1000000Y-52070D01*
X984760Y-57150D02*
X1000000Y-52070D01*
X0D02*
X15240Y-57150D01*
X0Y-52070D02*
X15240Y-46990D01*
D35*
X-54353Y271814D02*
X-51814Y266735D01*
X-46736Y261657D01*
X-41658D01*
X-39118Y264196D01*
Y269275D01*
X-41658Y271814D01*
X-44197D01*
X-46736Y269275D01*
Y261657D01*
X-51814Y276892D02*
X-54353Y279431D01*
Y284510D01*
X-51814Y287049D01*
X-41658D01*
X-39118Y284510D01*
Y279431D01*
X-41658Y276892D01*
X-51814D01*
X-39118Y292127D02*
X-41658D01*
Y294666D01*
X-39118D01*
Y292127D01*
X-51814Y304823D02*
X-54353Y307362D01*
Y312441D01*
X-51814Y314980D01*
X-41658D01*
X-39118Y312441D01*
Y307362D01*
X-41658Y304823D01*
X-51814D01*
Y320058D02*
X-54353Y322597D01*
Y327676D01*
X-51814Y330215D01*
X-41658D01*
X-39118Y327676D01*
Y322597D01*
X-41658Y320058D01*
X-51814D01*
X440074Y-61212D02*
X445152D01*
X442613D01*
Y-45977D01*
X440074Y-48516D01*
X452770D02*
X455309Y-45977D01*
X460387D01*
X462927Y-48516D01*
Y-58672D01*
X460387Y-61212D01*
X455309D01*
X452770Y-58672D01*
Y-48516D01*
X468005D02*
X470544Y-45977D01*
X475623D01*
X478162Y-48516D01*
Y-58672D01*
X475623Y-61212D01*
X470544D01*
X468005Y-58672D01*
Y-48516D01*
X483240Y-61212D02*
Y-58672D01*
X485779D01*
Y-61212D01*
X483240D01*
X495936Y-48516D02*
X498475Y-45977D01*
X503554D01*
X506093Y-48516D01*
Y-58672D01*
X503554Y-61212D01*
X498475D01*
X495936Y-58672D01*
Y-48516D01*
X511171D02*
X513710Y-45977D01*
X518789D01*
X521328Y-48516D01*
Y-58672D01*
X518789Y-61212D01*
X513710D01*
X511171Y-58672D01*
Y-48516D01*
X526406Y-61212D02*
Y-51055D01*
X528945D01*
X531484Y-53594D01*
Y-61212D01*
Y-53594D01*
X534024Y-51055D01*
X536563Y-53594D01*
Y-61212D01*
X541641D02*
Y-51055D01*
X544180D01*
X546720Y-53594D01*
Y-61212D01*
Y-53594D01*
X549259Y-51055D01*
X551798Y-53594D01*
Y-61212D01*
M02*
