G04*
G04 #@! TF.GenerationSoftware,Altium Limited,Altium Designer,20.2.2 (114)*
G04*
G04 Layer_Color=2752767*
%FSLAX44Y44*%
%MOMM*%
G71*
G04*
G04 #@! TF.SameCoordinates,263EBA9D-054C-40F6-8731-2C9348E58862*
G04*
G04*
G04 #@! TF.FilePolarity,Positive*
G04*
G01*
G75*
%ADD36C,0.0508*%
%ADD37C,0.0677*%
D36*
X785721Y553938D02*
Y558002D01*
X789785D01*
Y553938D01*
X785721D01*
Y514338D02*
Y518402D01*
X789785D01*
Y514338D01*
X785721D01*
Y474738D02*
Y478802D01*
X789785D01*
Y474738D01*
X785721D01*
Y435138D02*
Y439202D01*
X789785D01*
Y435138D01*
X785721D01*
X566928Y552148D02*
Y556212D01*
X570992D01*
Y552148D01*
X566928D01*
Y512548D02*
Y516612D01*
X570992D01*
Y512548D01*
X566928D01*
Y472948D02*
Y477012D01*
X570992D01*
Y472948D01*
X566928D01*
Y433348D02*
Y437412D01*
X570992D01*
Y433348D01*
X566928D01*
X676654Y552668D02*
Y556732D01*
X680718D01*
Y552668D01*
X676654D01*
Y513068D02*
Y517132D01*
X680718D01*
Y513068D01*
X676654D01*
Y473468D02*
Y477532D01*
X680718D01*
Y473468D01*
X676654D01*
Y433868D02*
Y437932D01*
X680718D01*
Y433868D01*
X676654D01*
X121158Y551108D02*
Y555172D01*
X125222D01*
Y551108D01*
X121158D01*
Y511508D02*
Y515572D01*
X125222D01*
Y511508D01*
X121158D01*
Y471908D02*
Y475972D01*
X125222D01*
Y471908D01*
X121158D01*
Y432308D02*
Y436372D01*
X125222D01*
Y432308D01*
X121158D01*
X229108Y551108D02*
Y555172D01*
X233172D01*
Y551108D01*
X229108D01*
Y511508D02*
Y515572D01*
X233172D01*
Y511508D01*
X229108D01*
Y471908D02*
Y475972D01*
X233172D01*
Y471908D01*
X229108D01*
Y432308D02*
Y436372D01*
X233172D01*
Y432308D01*
X229108D01*
X345948Y552378D02*
Y556442D01*
X350012D01*
Y552378D01*
X345948D01*
Y512778D02*
Y516842D01*
X350012D01*
Y512778D01*
X345948D01*
Y473178D02*
Y477242D01*
X350012D01*
Y473178D01*
X345948D01*
Y433578D02*
Y437642D01*
X350012D01*
Y433578D01*
X345948D01*
X456438Y552378D02*
Y556442D01*
X460502D01*
Y552378D01*
X456438D01*
Y512778D02*
Y516842D01*
X460502D01*
Y512778D01*
X456438D01*
Y473178D02*
Y477242D01*
X460502D01*
Y473178D01*
X456438D01*
Y433578D02*
Y437642D01*
X460502D01*
Y433578D01*
X456438D01*
X895858Y436118D02*
Y440182D01*
X899922D01*
Y436118D01*
X895858D01*
Y475718D02*
Y479782D01*
X899922D01*
Y475718D01*
X895858D01*
Y515318D02*
Y519382D01*
X899922D01*
Y515318D01*
X895858D01*
Y554918D02*
Y558982D01*
X899922D01*
Y554918D01*
X895858D01*
X255778Y80518D02*
Y84582D01*
X259842D01*
Y80518D01*
X255778D01*
X216178D02*
Y84582D01*
X220242D01*
Y80518D01*
X216178D01*
X176578D02*
Y84582D01*
X180642D01*
Y80518D01*
X176578D01*
X136978D02*
Y84582D01*
X141042D01*
Y80518D01*
X136978D01*
X903938Y84328D02*
Y88392D01*
X908002D01*
Y84328D01*
X903938D01*
X864338D02*
Y88392D01*
X868402D01*
Y84328D01*
X864338D01*
X824738D02*
Y88392D01*
X828802D01*
Y84328D01*
X824738D01*
X785138D02*
Y88392D01*
X789202D01*
Y84328D01*
X785138D01*
X690578D02*
Y88392D01*
X694642D01*
Y84328D01*
X690578D01*
X650978D02*
Y88392D01*
X655042D01*
Y84328D01*
X650978D01*
X611378D02*
Y88392D01*
X615442D01*
Y84328D01*
X611378D01*
X571778D02*
Y88392D01*
X575842D01*
Y84328D01*
X571778D01*
X477738Y81788D02*
Y85852D01*
X481802D01*
Y81788D01*
X477738D01*
X438138D02*
Y85852D01*
X442202D01*
Y81788D01*
X438138D01*
X398538D02*
Y85852D01*
X402602D01*
Y81788D01*
X398538D01*
X358938D02*
Y85852D01*
X363002D01*
Y81788D01*
X358938D01*
X27178Y300918D02*
Y304982D01*
X31242D01*
Y300918D01*
X27178D01*
Y261318D02*
Y265382D01*
X31242D01*
Y261318D01*
X27178D01*
Y221718D02*
Y225782D01*
X31242D01*
Y221718D01*
X27178D01*
Y182118D02*
Y186182D01*
X31242D01*
Y182118D01*
X27178D01*
Y142518D02*
Y146582D01*
X31242D01*
Y142518D01*
X27178D01*
X92710Y188468D02*
X90678Y192532D01*
X94742D01*
X92710Y188468D01*
X960000Y37968D02*
X961016Y38984D01*
X962032D01*
X961016Y40000D01*
X962032Y41016D01*
X961016D01*
X960000Y42032D01*
X958984Y41016D01*
X957968D01*
X958984Y40000D01*
X957968Y38984D01*
X958984D01*
X960000Y37968D01*
X970000Y557968D02*
X971016Y558984D01*
X972032D01*
X971016Y560000D01*
X972032Y561016D01*
X971016D01*
X970000Y562032D01*
X968984Y561016D01*
X967968D01*
X968984Y560000D01*
X967968Y558984D01*
X968984D01*
X970000Y557968D01*
X40000D02*
X41016Y558984D01*
X42032D01*
X41016Y560000D01*
X42032Y561016D01*
X41016D01*
X40000Y562032D01*
X38984Y561016D01*
X37968D01*
X38984Y560000D01*
X37968Y558984D01*
X38984D01*
X40000Y557968D01*
Y37968D02*
X41016Y38984D01*
X42032D01*
X41016Y40000D01*
X42032Y41016D01*
X41016D01*
X40000Y42032D01*
X38984Y41016D01*
X37968D01*
X38984Y40000D01*
X37968Y38984D01*
X38984D01*
X40000Y37968D01*
X537210Y142748D02*
X535178Y146812D01*
X539242D01*
X537210Y142748D01*
X732790Y130048D02*
X730758Y134112D01*
X734822D01*
X732790Y130048D01*
X308610Y147828D02*
X306578Y151892D01*
X310642D01*
X308610Y147828D01*
D37*
X150702Y190500D02*
G03*
X150702Y190500I-2032J0D01*
G01*
Y254500D02*
G03*
X150702Y254500I-2032J0D01*
G01*
X282702Y190500D02*
G03*
X282702Y190500I-2032J0D01*
G01*
Y254500D02*
G03*
X282702Y254500I-2032J0D01*
G01*
X238702D02*
G03*
X238702Y254500I-2032J0D01*
G01*
X194702D02*
G03*
X194702Y254500I-2032J0D01*
G01*
X238702Y317500D02*
G03*
X238702Y317500I-2032J0D01*
G01*
X282702D02*
G03*
X282702Y317500I-2032J0D01*
G01*
X194702D02*
G03*
X194702Y317500I-2032J0D01*
G01*
X150702D02*
G03*
X150702Y317500I-2032J0D01*
G01*
X282702Y358500D02*
G03*
X282702Y358500I-2032J0D01*
G01*
X238702D02*
G03*
X238702Y358500I-2032J0D01*
G01*
X194702D02*
G03*
X194702Y358500I-2032J0D01*
G01*
X150702D02*
G03*
X150702Y358500I-2032J0D01*
G01*
X582079Y191770D02*
G03*
X582079Y191770I-2032J0D01*
G01*
Y255770D02*
G03*
X582079Y255770I-2032J0D01*
G01*
X714079Y191770D02*
G03*
X714079Y191770I-2032J0D01*
G01*
Y255770D02*
G03*
X714079Y255770I-2032J0D01*
G01*
X670079D02*
G03*
X670079Y255770I-2032J0D01*
G01*
X626079D02*
G03*
X626079Y255770I-2032J0D01*
G01*
X670079Y318770D02*
G03*
X670079Y318770I-2032J0D01*
G01*
X714079D02*
G03*
X714079Y318770I-2032J0D01*
G01*
X626079D02*
G03*
X626079Y318770I-2032J0D01*
G01*
X582079D02*
G03*
X582079Y318770I-2032J0D01*
G01*
X714079Y359770D02*
G03*
X714079Y359770I-2032J0D01*
G01*
X670079D02*
G03*
X670079Y359770I-2032J0D01*
G01*
X626079D02*
G03*
X626079Y359770I-2032J0D01*
G01*
X582079D02*
G03*
X582079Y359770I-2032J0D01*
G01*
X367026Y190500D02*
G03*
X367026Y190500I-2032J0D01*
G01*
Y254500D02*
G03*
X367026Y254500I-2032J0D01*
G01*
X499025Y190500D02*
G03*
X499025Y190500I-2032J0D01*
G01*
Y254500D02*
G03*
X499025Y254500I-2032J0D01*
G01*
X455025D02*
G03*
X455025Y254500I-2032J0D01*
G01*
X411026D02*
G03*
X411026Y254500I-2032J0D01*
G01*
X455025Y317500D02*
G03*
X455025Y317500I-2032J0D01*
G01*
X499025D02*
G03*
X499025Y317500I-2032J0D01*
G01*
X411026D02*
G03*
X411026Y317500I-2032J0D01*
G01*
X367026D02*
G03*
X367026Y317500I-2032J0D01*
G01*
X499025Y358500D02*
G03*
X499025Y358500I-2032J0D01*
G01*
X455025D02*
G03*
X455025Y358500I-2032J0D01*
G01*
X411026D02*
G03*
X411026Y358500I-2032J0D01*
G01*
X367026D02*
G03*
X367026Y358500I-2032J0D01*
G01*
X795862Y193040D02*
G03*
X795862Y193040I-2032J0D01*
G01*
Y257040D02*
G03*
X795862Y257040I-2032J0D01*
G01*
X927862Y193040D02*
G03*
X927862Y193040I-2032J0D01*
G01*
Y257040D02*
G03*
X927862Y257040I-2032J0D01*
G01*
X883862D02*
G03*
X883862Y257040I-2032J0D01*
G01*
X839862D02*
G03*
X839862Y257040I-2032J0D01*
G01*
X883862Y320040D02*
G03*
X883862Y320040I-2032J0D01*
G01*
X927862D02*
G03*
X927862Y320040I-2032J0D01*
G01*
X839862D02*
G03*
X839862Y320040I-2032J0D01*
G01*
X795862D02*
G03*
X795862Y320040I-2032J0D01*
G01*
X927862Y361040D02*
G03*
X927862Y361040I-2032J0D01*
G01*
X883862D02*
G03*
X883862Y361040I-2032J0D01*
G01*
X839862D02*
G03*
X839862Y361040I-2032J0D01*
G01*
X795862D02*
G03*
X795862Y361040I-2032J0D01*
G01*
M02*
