G04*
G04 #@! TF.GenerationSoftware,Altium Limited,Altium Designer,20.2.2 (114)*
G04*
G04 Layer_Color=8388736*
%FSLAX44Y44*%
%MOMM*%
G71*
G04*
G04 #@! TF.SameCoordinates,263EBA9D-054C-40F6-8731-2C9348E58862*
G04*
G04*
G04 #@! TF.FilePolarity,Negative*
G04*
G01*
G75*
%ADD14R,1.8032X1.8032*%
G04:AMPARAMS|DCode=15|XSize=1.8032mm|YSize=1.8032mm|CornerRadius=0.5016mm|HoleSize=0mm|Usage=FLASHONLY|Rotation=90.000|XOffset=0mm|YOffset=0mm|HoleType=Round|Shape=RoundedRectangle|*
%AMROUNDEDRECTD15*
21,1,1.8032,0.8000,0,0,90.0*
21,1,0.8000,1.8032,0,0,90.0*
1,1,1.0032,0.4000,0.4000*
1,1,1.0032,0.4000,-0.4000*
1,1,1.0032,-0.4000,-0.4000*
1,1,1.0032,-0.4000,0.4000*
%
%ADD15ROUNDEDRECTD15*%
%ADD16R,3.8032X2.6032*%
%ADD17O,3.8032X2.6032*%
%ADD18R,2.6032X3.8032*%
%ADD19O,2.6032X3.8032*%
%ADD20C,2.7032*%
%ADD21R,2.7032X2.7032*%
%ADD22C,0.9144*%
%ADD23C,3.4032*%
D14*
X530860Y127220D02*
D03*
X748030Y110710D02*
D03*
X308610Y113470D02*
D03*
X92710Y85310D02*
D03*
D15*
X530860Y91220D02*
D03*
X748030Y74710D02*
D03*
X308610Y77470D02*
D03*
X92710Y49310D02*
D03*
D16*
X787753Y555970D02*
D03*
X568960Y554180D02*
D03*
X678686Y554700D02*
D03*
X123190Y553140D02*
D03*
X231140D02*
D03*
X347980Y554410D02*
D03*
X458470D02*
D03*
X897890Y438150D02*
D03*
X29210Y302950D02*
D03*
D17*
X787753Y516370D02*
D03*
Y476770D02*
D03*
Y437170D02*
D03*
X568960Y514580D02*
D03*
Y474980D02*
D03*
Y435380D02*
D03*
X678686Y515100D02*
D03*
Y475500D02*
D03*
Y435900D02*
D03*
X123190Y513540D02*
D03*
Y473940D02*
D03*
Y434340D02*
D03*
X231140Y513540D02*
D03*
Y473940D02*
D03*
Y434340D02*
D03*
X347980Y514810D02*
D03*
Y475210D02*
D03*
Y435610D02*
D03*
X458470Y514810D02*
D03*
Y475210D02*
D03*
Y435610D02*
D03*
X897890Y477750D02*
D03*
Y517350D02*
D03*
Y556950D02*
D03*
X29210Y263350D02*
D03*
Y223750D02*
D03*
Y184150D02*
D03*
Y144550D02*
D03*
D18*
X257810Y82550D02*
D03*
X905970Y86360D02*
D03*
X692610D02*
D03*
X479770Y83820D02*
D03*
D19*
X218210Y82550D02*
D03*
X178610D02*
D03*
X139010D02*
D03*
X866370Y86360D02*
D03*
X826770D02*
D03*
X787170D02*
D03*
X653010D02*
D03*
X613410D02*
D03*
X573810D02*
D03*
X440170Y83820D02*
D03*
X400570D02*
D03*
X360970D02*
D03*
D20*
X148670Y190500D02*
D03*
Y254500D02*
D03*
X280670Y190500D02*
D03*
Y254500D02*
D03*
X236670D02*
D03*
X192670D02*
D03*
X236670Y317500D02*
D03*
X280670D02*
D03*
X192670D02*
D03*
X148670D02*
D03*
X236670Y358500D02*
D03*
X192670D02*
D03*
X148670D02*
D03*
X580047Y191770D02*
D03*
Y255770D02*
D03*
X712047Y191770D02*
D03*
Y255770D02*
D03*
X668047D02*
D03*
X624047D02*
D03*
X668047Y318770D02*
D03*
X712047D02*
D03*
X624047D02*
D03*
X580047D02*
D03*
X668047Y359770D02*
D03*
X624047D02*
D03*
X580047D02*
D03*
X364994Y190500D02*
D03*
Y254500D02*
D03*
X496993Y190500D02*
D03*
Y254500D02*
D03*
X452993D02*
D03*
X408993D02*
D03*
X452993Y317500D02*
D03*
X496993D02*
D03*
X408993D02*
D03*
X364994D02*
D03*
X452993Y358500D02*
D03*
X408993D02*
D03*
X364994D02*
D03*
X793830Y193040D02*
D03*
Y257040D02*
D03*
X925830Y193040D02*
D03*
Y257040D02*
D03*
X881830D02*
D03*
X837830D02*
D03*
X881830Y320040D02*
D03*
X925830D02*
D03*
X837830D02*
D03*
X793830D02*
D03*
X881830Y361040D02*
D03*
X837830D02*
D03*
X793830D02*
D03*
D21*
X280670Y358500D02*
D03*
X712047Y359770D02*
D03*
X496993Y358500D02*
D03*
X925830Y361040D02*
D03*
D22*
X92710Y190500D02*
D03*
X537210Y144780D02*
D03*
X732790Y132080D02*
D03*
X308610Y149860D02*
D03*
D23*
X960000Y40000D02*
D03*
X970000Y560000D02*
D03*
X40000D02*
D03*
Y40000D02*
D03*
M02*
